PathFileType	4	(X/Y/Z)	C:/Users/beibeiliu/ov580/test_trc/capture2\sequence.18_training_dense_right.trc
DataRate	CameraRate	NumFrames	NumMarkers	Units	OrigDataRate	OrigDataStartFrame	OrigNumFrames
120	120	10	19	mm	120	349	398
Frame#	Time	ThumbCMC			ThumbMCP			ThumbIP			ThumbTip			IndexMCP			IndexPIP			IndexTip			MiddleMCP			MiddlePIP			MiddleTip			RingMCP			RingPIP			RingTip			PinkyMCP			PinkyPIP			PinkyTip			BackHand1			BackHand2			BackHand3	
		X0	Y0	Z0	X1	Y1	Z1	X2	Y2	Z2	X3	Y3	Z3	X4	Y4	Z4	X5	Y5	Z5	X6	Y6	Z6	X7	Y7	Z7	X8	Y8	Z8	X9	Y9	Z9	X10	Y10	Z10	X11	Y11	Z11	X12	Y12	Z12	X13	Y13	Z13	X14	Y14	Z14	X15	Y15	Z15	X16	Y16	Z16	X17	Y17	Z17	X18	Y18	Z18	
348	2.9	92.0535	68.6597	37.0356	75.5785	73.1634	13.0471	67.8801	90.8581	-7.11178	63.5334	101.558	-23.3949	87.3963	116.894	-19.506	87.1035	97.3823	-41.7446	90.8738	69.588	-20.7854	108.549	114.426	-26.4089	103.875	84.6273	-40.9757	110.399	68.1491	-11.0384	122.151	106.172	-30.9811	121.887	74.2543	-33.7796	118.812	70.1174	0.463172	139.696	99.53	-26.3601	134.579	72.3519	-28.6542	131.18	67.5741	5.88105	136.996	110.992	24.7571	143.505	91.393	50.3498	112.487	98.7477	43.8184	
349	2.90833	92.4703	71.3535	39.5082	75.1175	78.461	13.059	64.9838	91.3791	-4.52999	57.3049	106.257	-22.4534	85.2622	121.122	-15.7967	84.5972	98.8206	-40.5932	92.6218	74.7908	-18.8609	102.543	119.065	-26.225	103.061	92.2561	-41.3194	108.202	72.4705	-9.8505	122.096	111.622	-27.7746	117.598	83.704	-35.0929	121.414	74.269	-0.968341	138.142	105.658	-23.2344	132.211	77.8602	-28.5275	130.557	70.6685	3.51136	136.452	115.37	25.1392	147.669	95.6278	48.7768	109.858	101.707	45.4905	
350	2.91667	90.1233	77.1078	38.3376	76.4457	83.2501	14.2744	65.414	97.4148	-4.14523	55.4686	111.878	-21.7833	81.5117	125.137	-14.0922	78.3118	107.528	-38.9549	89.6059	78.9618	-20.81	101.672	123.979	-25.0003	98.2117	97.9076	-40.9058	108.769	77.0312	-11.2184	119.454	116.841	-26.6014	117.229	84.1941	-33.6985	115.489	80.0924	-1.20555	136.044	108.841	-25.6582	133.512	81.0058	-27.9299	128.88	75.7303	5.59165	139.058	119.708	26.3522	149.058	98.5728	51.3984	113.253	107.412	47.0607	
351	2.925	91.3024	79.7492	38.4176	77.6723	85.4635	14.6217	61.1406	100.222	-2.76795	59.9078	118.649	-21.9536	83.2221	130.48	-12.1517	80.5791	109.486	-38.5875	87.1309	85.0635	-22.9256	101.619	130.633	-21.4551	96.0609	105.23	-41.5861	104.108	81.7572	-13.1008	118.458	122.565	-26.6674	114.828	91.3051	-34.2897	119.798	82.4702	-4.47175	136.171	116.061	-22.6497	128.974	87.1166	-26.9121	129.027	81.5971	6.84723	134.527	123.303	25.3463	145.723	103.469	52.5508	110.938	112.332	45.1377	
352	2.93333	87.8804	85.5623	37.9673	74.999	89.2871	14.6379	61.1709	107.837	-3.6828	57.2195	119.533	-18.492	78.4524	135.445	-10.7565	77.7288	119.508	-38.5423	86.8737	90.2506	-23.9932	97.4574	134.274	-24.8166	93.8286	108.949	-40.5512	100.501	86.2166	-10.0296	117.707	128.33	-25.4977	113.105	100.306	-36.8423	113.624	88.1379	-2.12092	135.725	122.306	-22.7935	126.318	93.9206	-28.6983	125.185	87.8323	3.93772	138.681	127.31	27.5018	146.279	105.773	50.7579	106.687	115.532	46.003	
353	2.94167	88.6063	86.4967	39.4519	74.2699	98.5044	13.0352	62.7161	113.723	-4.19331	53.8929	127.882	-20.2042	81.0567	141.043	-11.8767	74.0081	123.93	-38.2811	87.8799	95.6933	-22.7069	98.3698	139.405	-22.1883	98.19	115.124	-42.6235	105.712	92.2503	-11.1057	117.225	133.083	-28.5159	111.201	101.733	-33.818	114.816	92.789	-5.36178	135.036	127.021	-24.1947	125.758	101.188	-30.1639	124.635	93.8856	2.51829	136.28	131.088	28.8394	141.22	114.867	49.4328	111.05	117.238	48.3623	
354	2.95	87.9958	90.6612	37.9944	75.3989	98.0092	13.4777	63.8256	115.091	-3.67036	53.5217	129.433	-19.1852	77.4127	145.802	-13.7476	77.234	127.252	-38.5275	86.5074	100.355	-25.8853	95.822	144.042	-25.1175	98.1386	119.153	-41.9773	104.29	96.2023	-9.21628	116.474	138.436	-25.029	115.644	107.123	-35.201	117.035	97.428	-2.05532	132.988	131.875	-25.9418	129.491	104.217	-29.7956	127.561	98.8595	2.37328	137.251	136.223	27.3711	140.027	117.217	49.4297	111.389	121.496	48.2204	
355	2.95833	91.7921	93.3505	37.235	76.4229	105.696	9.82883	65.241	117.75	-3.7852	57.7615	136.358	-21.5002	83.4912	150.598	-13.7852	77.2613	131.222	-40.5564	89.7642	104.207	-24.4573	101.683	149.853	-22.0222	100.977	124.614	-43.1369	105.607	100.835	-13.1388	118.356	142.419	-28.5897	114.794	112.427	-35.0018	119.279	102.593	-1.90335	134.14	137.224	-25.6292	133.07	111.021	-29.8172	131.245	101.798	1.44172	136.428	143.843	26.0921	143.999	122.624	49.4151	110.535	126.922	46.2399	
356	2.96667	95.1503	99.1388	34.3205	82.7757	109.685	8.27787	72.0947	124.107	-7.13926	61.481	138.372	-21.9881	87.0386	156.079	-14.9123	85.93	141.778	-39.8936	93.8613	111.161	-28.9901	105.132	155.033	-26.4705	105.282	127.763	-42.3501	111.604	107.082	-12.6178	123.08	148.503	-27.2939	123.307	118.258	-35.5581	126.774	105.715	-6.99323	144.559	143.106	-23.8194	138.14	115.378	-28.9942	136.551	108.725	5.22302	142.553	147.227	29.0548	150.938	127.392	50.095	111.306	130.443	45.0462	
357	2.975	101.84	105.405	30.7441	90.7491	110.144	8.00465	75.1467	130.095	-9.88529	72.8372	146.895	-25.5243	91.8876	159.185	-14.4885	90.4909	141.703	-41.6862	102.02	115.783	-31.4655	110.527	158.135	-22.372	114.174	132.914	-43.7506	122.794	110.538	-15.6394	135.696	153.317	-26.5602	130.425	122.938	-36.4578	132.366	110.222	-5.20715	149.393	148.091	-21.8394	143.987	120.407	-29.7945	142.168	108.993	-0.0288639	147.181	152.711	28.0008	154.207	127.748	51.5186	122.771	136.619	44.9837	
